<svg xmlns="http://www.w3.org/2000/svg" viewBox="0 0 1200 800" width="1200" height="800"><path fill="#251749" d="M0 0h1200v800H0z"/><g transform="translate(490.0 242.0) rotate(0.0 104.5 127.0) scale(1.0036207178049037 1.0001575051189164)"><svg width="208.246" height="253.96" viewBox="0 0 208.246 253.96"><path d="M164.824 103.451S119.25 45.294 44.34 32.505L3 76.171s16.929 87.808 145.95 89.168z" fill="#251749"/><path d="M148.95 168.339h-.031c-37.379-.394-89.152-8.706-123.534-46.063C4.685 99.786.233 77.669.054 76.739a2.998 2.998 0 0 1 .767-2.63l41.341-43.666a3.005 3.005 0 0 1 2.684-.895c39.31 6.711 70.46 25.922 89.67 40.857 20.81 16.179 32.196 30.589 32.671 31.195.575.734.776 1.693.545 2.596l-15.875 61.889a3.002 3.002 0 0 1-2.907 2.254zM6.293 77.056c1.349 5.175 7.016 23.352 23.745 41.416 25.678 27.725 65.958 42.858 116.594 43.833l14.909-58.125c-6.743-8.017-49.883-56.489-116.131-68.441z" fill="#FFFBEB"/><path d="m7.514 10.368 75.476 99.74a14.66 14.66 0 0 0 11.144 6.204l106.147 6.158c4.001.232 6.426-4.343 3.988-7.524l-69.721-90.975a13.193 13.193 0 0 0-8.56-5.028L12.016 3.053c-4.061-.594-6.862 3.958-4.502 7.315z" fill="#251749"/><path d="M200.571 125.479c-.153 0-.309-.004-.464-.013L93.96 119.308a17.57 17.57 0 0 1-13.393-7.429L5.122 12.178l-.062-.084c-1.793-2.55-1.891-5.784-.258-8.438C6.437 1.001 9.365-.367 12.45.084l113.952 15.889a16.113 16.113 0 0 1 10.526 6.174l69.721 90.976c1.851 2.414 2.115 5.583.691 8.271-1.351 2.55-3.916 4.085-6.769 4.085zM9.945 8.609l75.438 99.689.062.084a11.599 11.599 0 0 0 8.863 4.935l106.147 6.158c.963.057 1.433-.605 1.585-.892s.441-1.038-.151-1.812l-69.721-90.976a10.136 10.136 0 0 0-6.613-3.884L11.602 6.024c-1.004-.145-1.516.494-1.689.777-.172.279-.508 1.007.032 1.808z" fill="#FFFBEB"/><path d="M180.504 193.029a3 3 0 0 1-3-3v-67.33L113.01 67.112a3 3 0 0 1 3.918-4.545l65.534 56.484a3 3 0 0 1 1.041 2.272v68.705a3 3 0 0 1-2.999 3.001z" fill="#FFFBEB"/><circle cx="180.503" cy="192.444" fill="#FFFBEB" r="7.666"/><path d="M187.086 209.4c-2.92-4.195-9.126-4.513-12.394-.583-1.252 1.506-2.373 3.635-2.975 6.643-1.637 8.186-3.9 30.762-4.502 36.927a1.435 1.435 0 0 0 1.43 1.573h23.717c.859 0 1.526-.749 1.427-1.603l-4.302-36.897c-.001-.001-.413-3.205-2.401-6.06z" fill="#FFFBEB"/><path d="M182.416 206.097h-3.824a3 3 0 1 1 0-6h3.824a3 3 0 1 1 0 6z" fill="#FFFBEB"/></svg></g></svg>