<svg xmlns="http://www.w3.org/2000/svg" viewBox="0 0 1200 800" width="1200" height="800"><path fill="#FFF" d="M0 0h1200v800H0z"/><g transform="translate(437.0 120.0) rotate(0.0 162.5 280.0) scale(0.7622541144131698 0.7626923585035431)"><svg width="426.367" height="734.241" viewBox="0 0 426.367 734.241"><g fill="#FFFBEB"><path d="M235.917.041h-84.2L148.1 3.7l3.15 10.96 4.57-4.62h72.5l141 489.6-72.3 21.37 2.76 9.61 81.94-24.18zm186.3 625a83.431 83.431 0 0 0-78.1-57.3h-60.37l.03 10h.44q2.565 0 5.1.18v-.18h45.1l5.1.1c1.19-.06 2.37-.09 3.55-.09a73.245 73.245 0 1 1 .05 146.49h-53.8v-.28c-1.68.12-3.34.18-5 .18h-.03l.03 10.1h63.8v-.2a83.2 83.2 0 0 0 74.1-109z"/><path d="M184.12 545.04a5.16 5.16 0 0 1-4.7-3.3L.32 55.44a4.812 4.812 0 0 1 .2-3.9 5.261 5.261 0 0 1 2.9-2.6L152.12.24a5.264 5.264 0 0 1 3.9.3 4.983 4.983 0 0 1 2.5 3l143.4 498a5 5 0 0 1-3.2 6.1l-113 37a3.429 3.429 0 0 1-1.6.4zM11.52 56.94l175.6 476.9 103.8-34-140.6-488.4zm272.8 677.3a83.218 83.218 0 1 1 79-109.1 83.061 83.061 0 0 1-79 109.1zm-.1-156.5a75.837 75.837 0 0 0-22.8 3.6 73.215 73.215 0 0 0 22.9 142.8 75.837 75.837 0 0 0 22.8-3.6 73.31 73.31 0 0 0 46.8-92.4 73.44 73.44 0 0 0-69.7-50.4z"/><path d="M297.12 503.04h78.3l-125.2 37h-66.1z"/><path d="M250.22 545.04h-66.1a4.952 4.952 0 0 1-4.9-4.2 4.869 4.869 0 0 1 3.4-5.5l113-37a4.145 4.145 0 0 1 1.6-.2h78.4a5.009 5.009 0 0 1 1.4 9.8l-125.2 37c-.6 0-1.1.1-1.6.1zm-34.8-10h34.1l91.4-27h-43z"/></g></svg></g></svg>